<svg width="178" height="24" viewBox="0 0 178 24" fill="none" xmlns="http://www.w3.org/2000/svg">
<path d="M30.4647 15.9215L23.769 4.30708C22.3011 1.88634 18.7215 1.86058 17.3051 4.41009L10.2747 16.4881C8.96129 18.7028 10.5837 21.4841 13.2105 21.4841H27.2972C29.9497 21.4841 31.9326 18.6255 30.4647 15.9215Z" fill="#3156AA"/>
<path d="M20.8083 16.8229L20.3963 16.1018C20.01 15.4322 19.1601 13.9901 19.1601 13.9901L13.4946 4.15257C12.0267 1.9636 8.55006 1.78333 7.08216 4.53886L0.489493 15.9473C-0.875396 18.3423 0.747018 21.4583 3.70857 21.4841H17.718H23.6926H27.2465C23.6153 21.5098 22.4565 19.6299 20.8083 16.8229Z" fill="#1972E2"/>
<path d="M20.8088 16.8222L20.3968 16.1011C20.0105 15.4316 19.1607 13.9894 19.1607 13.9894L15.5038 7.55127L10.2503 16.5132C8.93688 18.7279 10.5593 21.5092 13.1861 21.5092H17.6928H23.6674H27.247C23.5901 21.4834 22.457 19.6292 20.8088 16.8222Z" fill="url(#paint0_linear_5160_14216)"/>
<path d="M176.089 20.561C174.973 20.561 174.099 20.3197 173.435 19.8975C172.742 19.4451 172.38 18.7817 172.38 17.8769V4.72803H174.129C174.762 4.72803 175.305 5.24071 175.305 5.90419V17.4849C175.305 17.515 175.305 18.0579 175.758 18.5102C176.029 18.7817 176.361 18.9325 176.813 18.9325H177.145C177.265 18.9325 177.386 19.0531 177.386 19.1737V20.5912L176.089 20.561Z" fill="#326AD5"/>
<path d="M138.391 20.5604C136.582 20.5604 135.104 20.0779 133.988 19.1128C133.415 18.6303 133.023 18.0874 132.782 17.4843C132.541 16.8811 132.42 16.0065 132.42 14.8304C132.42 13.6844 132.541 12.7796 132.782 12.1764C132.993 11.6034 133.385 11.0908 133.958 10.6082C135.074 9.64317 136.552 9.16064 138.361 9.16064C140.171 9.16064 141.648 9.64317 142.764 10.6082C143.337 11.0908 143.729 11.6336 143.94 12.1764C144.182 12.8098 144.302 13.6844 144.302 14.8304C144.302 16.0065 144.182 16.8811 143.94 17.4843C143.699 18.0874 143.307 18.6303 142.734 19.1128C141.678 20.0779 140.201 20.5604 138.391 20.5604ZM138.391 10.8193C136.401 10.8193 135.406 12.1764 135.406 14.8605C135.406 17.5747 136.401 18.9318 138.391 18.9318C140.382 18.9318 141.377 17.5747 141.377 14.8907C141.377 12.1764 140.351 10.8193 138.391 10.8193Z" fill="#326AD5"/>
<path d="M150.878 20.561C149.31 20.561 147.862 20.1388 146.626 19.3245C146.505 19.2039 146.264 19.0531 145.962 18.8721C145.902 18.842 145.842 18.7515 145.842 18.661V4.72803H147.621C148.254 4.72803 148.797 5.27087 148.797 5.90419V9.97552L149.34 9.67394C149.973 9.34221 150.818 9.19142 151.904 9.19142C153.804 9.19142 155.251 9.76442 156.216 10.8803C157.061 11.8755 157.483 13.2024 157.483 14.831C157.483 16.4595 157 17.7865 156.035 18.7515C154.919 19.9578 153.17 20.561 150.878 20.561ZM151.18 10.82C150.516 10.82 149.762 11.0612 148.918 11.5739L148.797 11.6342V18.1785L148.918 18.269C149.581 18.6912 150.366 18.9023 151.18 18.9023C152.265 18.9023 153.11 18.4499 153.683 17.5452C154.165 16.8214 154.437 15.8865 154.437 14.831C154.437 12.1771 153.321 10.82 151.18 10.82Z" fill="#326AD5"/>
<path d="M164.447 20.5302C161.13 20.5302 159.049 18.3588 159.049 14.8304C159.049 11.332 161.1 9.16064 164.387 9.16064C165.653 9.16064 166.739 9.49238 167.614 10.1257L167.795 10.2463V9.37175H170.117C170.268 9.37175 170.358 9.49238 170.358 9.61302V20.3191H167.765V19.3541L167.584 19.5049C166.86 20.1683 165.714 20.5302 164.447 20.5302ZM165.05 11.0908C162.969 11.0908 161.733 12.6891 161.733 14.8304C161.733 16.9716 162.969 18.6303 165.05 18.6303C165.714 18.6303 166.86 18.57 167.765 17.6652L167.795 17.6351V12.1463L167.765 12.1161C167.131 11.3923 166.196 11.0908 165.05 11.0908Z" fill="#326AD5"/>
<path d="M57.295 20.4072V4.69482H70.3535V5.69004C70.3535 6.47415 69.7202 7.10747 68.936 7.10747H60.5521V11.3296H68.936V13.7422H60.5521V17.9644H68.936C69.7202 17.9644 70.3535 18.5977 70.3535 19.3818V20.377L57.295 20.4072Z" fill="#EDEFF2"/>
<path d="M89.1128 4.69482H86.0367C85.4636 4.69482 84.951 4.93609 84.5891 5.38846L80.8796 10.063L77.1702 5.41862C76.8083 4.96625 76.2956 4.72498 75.7226 4.72498H72.6465L78.8892 12.5661L72.6465 20.4072H75.7226C76.2956 20.4072 76.8083 20.1659 77.1702 19.7135L80.8796 15.0692L84.6192 19.7437C84.9811 20.1659 85.4938 20.4373 86.0668 20.4373H89.1429L82.9002 12.5962L89.1128 4.69482Z" fill="#EDEFF2"/>
<path d="M47.0727 18.7513L51.3552 11.2721V20.3798H54.6122V4.66748H52.5917C51.9583 4.66748 51.3552 4.99922 51.0536 5.57222L45.9267 14.9212L40.7999 5.57222C40.4983 4.99922 39.8951 4.66748 39.2618 4.66748H37.2412V20.3798H40.4983V11.2721L44.7807 18.7513H47.0727Z" fill="#EDEFF2"/>
<path d="M97.6207 20.5893C93.0969 20.6496 89.4177 17.0909 89.3875 12.5672C89.3875 10.0943 90.1415 8.04351 91.5589 6.62608C92.9763 5.23882 95.0271 4.48486 97.4699 4.48486C100.335 4.48486 102.597 5.48008 104.225 7.41019L103.2 8.28478C102.567 8.82762 101.632 8.85778 100.938 8.34509C100.033 7.65146 98.8873 7.31972 97.5905 7.31972C94.3937 7.31972 92.4938 9.24983 92.4938 12.5069C92.4938 15.7941 94.4541 17.8147 97.5905 17.8147C98.9174 17.8147 100.033 17.4528 100.938 16.7893C101.602 16.2767 102.536 16.3068 103.2 16.8497L104.225 17.7242C102.597 19.6242 100.425 20.5893 97.6207 20.5893Z" fill="#EDEFF2"/>
<path d="M117.674 20.5885C112.607 20.5885 109.471 17.5124 109.471 12.5665C109.471 7.62055 112.607 4.54443 117.613 4.54443C120.026 4.54443 122.047 5.23807 123.615 6.6555L122.861 7.49992C122.529 7.86182 122.047 8.07292 121.564 8.07292C121.293 8.07292 121.021 8.01261 120.78 7.89198C119.845 7.40945 118.759 7.16818 117.613 7.16818C114.356 7.16818 112.336 9.24909 112.336 12.5966C112.336 15.9743 114.447 18.0552 117.824 18.0552C119.453 18.0552 120.72 17.7537 121.655 17.0902L121.715 17.06V13.8331H118.126V12.7776C118.126 11.9935 118.759 11.3601 119.543 11.3601H123.977C124.097 11.3601 124.218 11.4808 124.218 11.6014V18.5679C122.68 19.8949 120.478 20.5885 117.674 20.5885Z" fill="#326AD5"/>
<path d="M130.038 20.561C128.922 20.561 128.047 20.3197 127.384 19.8975C126.69 19.4451 126.328 18.7817 126.328 17.8769V4.72803H128.077C128.711 4.72803 129.253 5.24071 129.253 5.90419V17.4849C129.253 17.515 129.253 18.0579 129.706 18.5102C129.977 18.7817 130.309 18.9325 130.761 18.9325H131.093C131.214 18.9325 131.334 19.0531 131.334 19.1737V20.5912L130.038 20.561Z" fill="#326AD5"/>
<defs>
<linearGradient id="paint0_linear_5160_14216" x1="8.38052" y1="12.4412" x2="24.6557" y2="18.4554" gradientUnits="userSpaceOnUse">
<stop stop-color="#264CA2" stop-opacity="0"/>
<stop offset="1" stop-color="#234588"/>
</linearGradient>
</defs>
</svg>
