<svg width="107" height="23" viewBox="0 0 107 23" fill="none" xmlns="http://www.w3.org/2000/svg">
<path d="M30.4647 15.4308L23.769 3.81636C22.3011 1.39561 18.7215 1.36986 17.3051 3.91937L10.2747 15.9974C8.96129 18.2121 10.5837 20.9934 13.2105 20.9934H27.2972C29.9497 20.9934 31.9326 18.1348 30.4647 15.4308Z" fill="#3156AA"/>
<path d="M20.8083 16.3321L20.3963 15.6111C20.01 14.9415 19.1601 13.4994 19.1601 13.4994L13.4946 3.66185C12.0267 1.47288 8.55006 1.29261 7.08216 4.04814L0.489493 15.4565C-0.875396 17.8515 0.747018 20.9676 3.70857 20.9934H17.718H23.6926H27.2465C23.6153 21.0191 22.4565 19.1392 20.8083 16.3321Z" fill="#1972E2"/>
<path d="M20.8088 16.3315L20.3968 15.6104C20.0105 14.9408 19.1607 13.4987 19.1607 13.4987L15.5038 7.06055L10.2503 16.0225C8.93688 18.2372 10.5593 21.0185 13.1861 21.0185H17.6928H23.6674H27.247C23.5901 20.9927 22.457 19.1385 20.8088 16.3315Z" fill="url(#paint0_linear_5312_35231)"/>
<path d="M89.3875 12.0765C89.4177 16.6002 93.0969 20.1588 97.6207 20.0985C100.425 20.0985 102.597 19.1335 104.225 17.2335L103.2 16.3589C102.536 15.8161 101.602 15.7859 100.938 16.2986C100.033 16.9621 98.9174 17.324 97.5905 17.324C94.4541 17.324 92.4938 15.3034 92.4938 12.0162C92.4938 8.75911 94.3937 6.829 97.5905 6.829C98.8873 6.829 100.033 7.16074 100.938 7.85437C101.632 8.36706 102.567 8.3369 103.2 7.79405L104.225 6.91947C102.597 4.98936 100.335 3.99414 97.4699 3.99414C95.0271 3.99414 92.9763 4.74809 91.5589 6.13536C90.1415 7.55279 89.3875 9.60354 89.3875 12.0765Z" fill="#EDEFF2"/>
<path d="M47.0727 18.2606L51.3552 10.7814V19.8891H54.6122V4.17676H52.5917C51.9583 4.17676 51.3552 4.5085 51.0536 5.0815L45.9267 14.4305L40.7999 5.0815C40.4983 4.5085 39.8951 4.17676 39.2618 4.17676H37.2412V19.8891H40.4983V10.7814L44.7807 18.2606H47.0727Z" fill="#EDEFF2"/>
<path d="M57.295 4.2041V19.9164L70.3534 19.8863V18.8911C70.3534 18.107 69.7201 17.4736 68.936 17.4736H60.5521V13.2515H68.936V10.8389H60.5521V6.61674H68.936C69.7201 6.61674 70.3534 5.98343 70.3534 5.19932V4.2041H57.295Z" fill="#EDEFF2"/>
<path d="M86.0366 4.2041H89.1127L82.9002 12.1055L89.1429 19.9466H86.0668C85.4938 19.9466 84.9811 19.6752 84.6192 19.253L80.8796 14.5785L77.1702 19.2228C76.8083 19.6752 76.2956 19.9164 75.7226 19.9164H72.6465L78.8892 12.0753L72.6465 4.23426H75.7226C76.2956 4.23426 76.8083 4.47552 77.1702 4.92789L80.8796 9.57223L84.589 4.89774C84.9509 4.44537 85.4636 4.2041 86.0366 4.2041Z" fill="#EDEFF2"/>
<defs>
<linearGradient id="paint0_linear_5312_35231" x1="8.38052" y1="11.9505" x2="24.6557" y2="17.9647" gradientUnits="userSpaceOnUse">
<stop stop-color="#264CA2" stop-opacity="0"/>
<stop offset="1" stop-color="#234588"/>
</linearGradient>
</defs>
</svg>
