<svg width="581" height="89" viewBox="0 0 581 89" fill="none" xmlns="http://www.w3.org/2000/svg">
<path d="M137.562 62.5909L107.375 10.1817C100.787 -0.732779 84.5627 -0.831107 78.1713 10.6733L46.5095 65.1474C40.6098 75.1769 47.8861 87.6647 59.7838 87.6647H123.402C135.3 87.763 144.248 74.7837 137.562 62.5909Z" fill="#003087"/>
<path d="M94.0026 66.7207L92.1343 63.4758C90.3644 60.4276 86.5296 53.9379 86.5296 53.9379L60.9642 9.49345C54.3761 -0.339414 38.6436 -1.22438 32.0556 11.2634L2.26196 62.7875C-3.93274 73.6037 3.44192 87.6647 16.8146 87.763H80.0399H106.982H123.009C106.687 87.8613 101.476 79.3067 94.0026 66.7207Z" fill="#1877F2"/>
<path d="M94.0026 66.524L92.1344 63.2791C90.3644 60.2309 86.5296 53.7413 86.5296 53.7413L70.0104 24.636L46.3132 65.1474C40.4135 75.1769 47.6898 87.6647 59.5875 87.6647H79.9416H106.884H123.01C106.589 87.5663 101.476 79.2084 94.0026 66.524Z" fill="url(#paint0_linear_10907_331)"/>
<path d="M530.556 24.481C534.98 20.3512 542.748 18.3846 554.056 18.3846H580.507V3.34033H549.238C541.765 3.34033 535.472 4.12699 530.556 5.70024C525.737 7.2735 521.509 9.73169 517.871 13.1732C514.036 16.9097 510.988 21.5311 508.825 27.0375C506.662 32.6422 505.58 38.7386 505.58 45.13C505.58 51.2264 506.662 57.1261 508.825 62.5342C510.988 67.9423 514.036 72.662 517.871 76.3985C521.411 79.84 525.639 82.2982 530.359 83.8715C535.177 85.4448 541.568 86.2314 549.238 86.2314H580.507V71.3838H554.056C548.058 71.3838 543.928 71.1871 541.568 70.6954C539.11 70.2038 536.849 69.4172 534.98 68.2372C531.244 65.8773 528.392 62.8291 526.524 58.9943C524.754 55.2578 523.869 50.5381 523.869 45.0317C523.869 35.5921 526.131 28.6108 530.556 24.481Z" fill="white"/>
<path d="M300.368 86.4281H374.115V71.8755H318.362V51.1281H367.035V37.3621H318.362V18.0897H374.115V3.43872H300.368V86.4281Z" fill="white"/>
<path d="M392.502 3.43872L427.015 44.9334L392.502 86.4281H414.823L442.06 53.5863V36.3788L414.823 3.43872H392.502Z" fill="white"/>
<path d="M476.278 3.43872L449.041 36.3788V53.5863L476.278 86.4281H498.599L463.987 44.9334L498.599 3.43872H476.278Z" fill="white"/>
<path d="M228.096 44.3435L194.96 3.43872H177.851V86.4281H195.845V31.0691L224.557 65.4841H231.538L260.25 30.7741V86.4281H278.244V3.43872H261.332L228.096 44.3435Z" fill="white"/>
<defs>
<linearGradient id="paint0_linear_10907_331" x1="37.8556" y1="46.7871" x2="111.314" y2="73.9323" gradientUnits="userSpaceOnUse">
<stop stop-color="#003087" stop-opacity="0"/>
<stop offset="1" stop-color="#003087"/>
</linearGradient>
</defs>
</svg>
